<svg version="1.1" xmlns="http://www.w3.org/2000/svg" x="0px" y="0px" width="242" height="80" viewBox="0 0 241.535 79.215" xml:space="preserve">
    <title>CASUAL ENTERTAINMENT GAMING ONLINE</title>
    <g>
        <path d="M123.25,58.355h-32.5V25.856h32.5v6.5h-26v19.499h26V58.355z"/>
        <path d="M136.25,32.356v6.5h26v6.499h-26v6.5h26v6.5h-32.5V25.856h32.5v6.5H136.25z"/>
        <path style="fill:#A33129;" d="M175.25,51.855h19.5v-6.5h-13v-6.499h19.5v19.499h-32.5V25.856h32.5v6.5h-26V51.855z"/>
        <path style="fill:#A33129;" d="M240.25,25.856v32.499h-32.5V25.856H240.25z M233.75,32.356h-19.5v19.499h19.5V32.356z"/>
    </g>
    <g>
        <path d="M2.331,50.262c-0.498,0.47-0.884,1.409-1.216,2.764c-0.11,0.553-0.221,1.078-0.276,1.548    c-0.083,0.608-0.138,1.051-0.11,1.3c0.027,0.332,0.027,0.663,0.027,0.996l0.056,0.413c0.055,0.498,0.165,0.996,0.304,1.493    c0.304,1.023,0.719,1.77,1.216,2.295c0.608,0.58,1.244,0.995,1.935,1.272L38.96,77.602c0.774,0.359,1.631,0.525,2.571,0.525    c1.023,0,1.99-0.221,2.875-0.663l28.198-14.541c0.249-0.11,0.47-0.222,0.663-0.333c0.387-0.247,0.747-0.524,1.106-0.884    c0.497-0.498,0.912-1.273,1.216-2.267c0.083-0.332,0.166-0.664,0.221-0.968c0.028-0.082,0.028-0.11,0.056-0.193    c0-0.111,0.028-0.193,0.028-0.277c0-0.165,0.055-0.331,0.055-0.524c0-0.027,0-0.056,0.027-0.084v-0.829    c0-0.414-0.027-0.801-0.083-1.244c-0.028-0.055-0.028-0.11-0.028-0.165c-0.083-0.47-0.166-0.968-0.277-1.466    c-0.332-1.382-0.747-2.294-1.216-2.792c-0.885-0.884-1.935-1.409-3.124-1.548h-1.603H8.993c-0.83-0.47-1.742-0.719-2.737-0.719    C4.709,48.63,3.409,49.182,2.331,50.262z M46.148,72.046l-0.028,0.027C46.12,72.073,46.12,72.073,46.148,72.046L46.148,72.046z     M46.12,72.653c0,0,0,0,0.028-0.027l0,0L46.12,72.653z"/>
        <path style="fill:#575757;" d="M46.12,72.073l0.028-0.027l0,0C46.12,72.073,46.12,72.073,46.12,72.073z"/>
        <path style="fill:#575757;" d="M46.148,72.626c-0.028,0.027-0.028,0.027-0.028,0.027L46.148,72.626L46.148,72.626z"/>
        <path style="fill:#CB4832;" d="M71.249,49.349c-0.249-0.056-0.525-0.056-0.801-0.056s-0.553,0-0.802,0.056H71.249z"/>

            <line style="fill:none;stroke:#00A651;stroke-width:0;stroke-linecap:round;stroke-linejoin:round;" x1="69.646" y1="49.349" x2="8.993" y2="49.349"/>
        <path style="fill:none;stroke:#00A651;stroke-width:0;stroke-linecap:round;stroke-linejoin:round;" d="M69.646,49.349h1.603    c-0.249-0.056-0.525-0.056-0.801-0.056S69.895,49.293,69.646,49.349"/>
    </g>
    <g>
        <path d="M42.001,38.263c-0.525-0.248-1.023-0.442-1.52-0.58l0,0l0,0c-1.548-0.553-3.042-0.802-4.506-0.802l0,0    c-0.027,0-0.056,0-0.056,0c-1.824,0.056-3.676,0.47-5.583,1.299c0,0,0,0-0.028,0.028l0,0L3.409,49.349    c-1.188,0.636-1.686,1.548-1.493,2.736c0.083,0.609,0.387,1.051,0.857,1.354c0.305,0.194,0.968,0.498,1.935,0.94    c0.027,0,0.055,0.027,0.11,0.027l30.133,13.186c0.498,0.194,1.023,0.416,1.604,0.554c0,0,0,0,0,0.027h0.028h0.027    c1.244,0.358,2.599,0.581,4.091,0.691l0,0c0.028,0,0.056,0,0.083,0c2.019,0.083,3.705-0.139,5.031-0.664    c0.027,0,0.027,0,0.027-0.027c0,0,0,0,0.028,0c0.027,0,0.055-0.027,0.082-0.027l0,0h0.028l27.534-13.629    c1.244-0.691,1.769-1.521,1.603-2.461c-0.331-0.884-1.161-1.658-2.433-2.322c-0.166-0.083-0.359-0.165-0.525-0.248L42.001,38.263z    "/>
    </g>
    <g>
        <path style="fill:#CCCCCC;" d="M71.359,50.813c-0.138-0.165-0.276-0.304-0.441-0.441c-0.498-0.415-1.134-0.802-1.963-1.161    c-2.045-0.885-4.506-1.327-7.409-1.327c-2.902,0-5.391,0.442-7.436,1.327c-2.046,0.911-3.069,1.99-3.069,3.233    c0,1.271,1.023,2.323,3.069,3.234c0.249,0.11,0.497,0.194,0.774,0.305c1.88,0.691,4.091,1.023,6.662,1.023    c1.686,0,3.262-0.138,4.672-0.471c0.082,0,0.165-0.027,0.248-0.055c0.884-0.193,1.714-0.471,2.488-0.803    c1.106-0.497,1.908-1.021,2.405-1.603c0.443-0.498,0.664-1.051,0.664-1.632C72.024,51.864,71.802,51.312,71.359,50.813z"/>
        <path style="fill:#CCCCCC;" d="M51.788,60.047c-0.139-0.165-0.277-0.304-0.47-0.47c-0.525-0.442-1.216-0.829-2.046-1.216    c-2.156-0.94-4.755-1.382-7.823-1.382c-3.041,0-5.667,0.441-7.823,1.382c-2.157,0.939-3.234,2.072-3.234,3.4    c0,1.326,1.078,2.46,3.234,3.399c2.156,0.94,4.782,1.41,7.823,1.41c1.797,0,3.456-0.165,4.92-0.498    c1.051-0.221,2.019-0.524,2.903-0.912c1.134-0.497,1.991-1.05,2.516-1.658c0.47-0.553,0.719-1.134,0.719-1.741    C52.506,61.153,52.257,60.573,51.788,60.047z"/>
    </g>
    <g>
        <path style="fill:#CCCCCC;" d="M42.83,45.755c-2.349-1.022-5.197-1.549-8.542-1.549s-6.192,0.526-8.542,1.549    c-2.377,1.024-3.538,2.267-3.538,3.733c0,1.437,1.161,2.682,3.538,3.731c2.35,1.023,5.197,1.521,8.542,1.521    s6.193-0.497,8.542-1.521c2.378-1.05,3.567-2.294,3.567-3.731C46.397,48.021,45.208,46.778,42.83,45.755z"/>
    </g>
    <g>
        <path style="fill:#9B1B1F;" d="M40.564,45.064c0.028,0,0.055,0,0.055,0.027c0.664,0.276,1.189,0.58,1.576,0.885    c0.221,0.165,0.36,0.332,0.498,0.497c0.221,0.276,0.359,0.525,0.415,0.829c0.055,0.11,0.055,0.249,0.055,0.388    c0,0.414-0.138,0.829-0.47,1.188c-0.414,0.525-1.106,0.995-2.074,1.383c-1.686,0.718-3.732,1.077-6.109,1.077    c-0.11,0-0.194,0-0.276,0c-2.267-0.027-4.229-0.387-5.833-1.077c-1.714-0.691-2.543-1.576-2.543-2.571    c-0.028-0.166,0-0.332,0.055-0.498c0.11-0.332,0.304-0.664,0.608-0.94c0.055-0.083,0.138-0.138,0.221-0.221    c0.415-0.332,0.967-0.663,1.659-0.939c0.664-0.305,1.382-0.525,2.156-0.691c-0.774,0.138-1.521,0.276-2.212,0.47    c-0.746,0.222-1.465,0.47-2.128,0.774c-0.055,0.027-0.11,0.055-0.194,0.083c-2.101,0.995-3.151,2.156-3.151,3.538    c0,1.383,1.106,2.599,3.345,3.594c2.239,0.996,4.948,1.493,8.1,1.493c1.521,0,2.958-0.11,4.258-0.332    c1.41-0.275,2.709-0.664,3.842-1.161c0.111-0.055,0.194-0.083,0.277-0.138c0.995-0.47,1.741-0.968,2.267-1.521    c0.553-0.608,0.829-1.244,0.829-1.936c0-1.023-0.553-1.907-1.686-2.681c-0.387-0.306-0.857-0.554-1.41-0.83    c-0.083-0.027-0.166-0.083-0.277-0.11c-0.553-0.276-1.161-0.497-1.797-0.663c-0.276-0.084-0.497-0.166-0.774-0.223    c-0.139-0.026-0.276-0.054-0.415-0.082c0.138,0.028,0.276,0.082,0.415,0.11C40.066,44.87,40.342,44.981,40.564,45.064z"/>
    </g>
    <g>
        <path style="fill:#9B1B1F;" d="M71.498,52.195c0-1.216-0.967-2.266-2.902-3.123c-0.691-0.304-1.438-0.553-2.239-0.746    c-0.138-0.056-0.249-0.084-0.359-0.084c0.332,0.084,0.663,0.222,0.995,0.333c0,0,0.027,0,0.055,0.026    c1.465,0.609,2.184,1.355,2.184,2.24c0,0.856-0.719,1.603-2.184,2.211c-1.493,0.636-3.262,0.94-5.308,0.94    c-2.073,0-3.842-0.305-5.308-0.94c-1.465-0.608-2.211-1.354-2.211-2.211c0-0.525,0.276-0.996,0.802-1.437    c0.331-0.276,0.801-0.553,1.41-0.803c0.581-0.248,1.216-0.441,1.88-0.58c-0.664,0.083-1.327,0.221-1.935,0.388    c-0.636,0.192-1.244,0.414-1.825,0.663c-0.055,0.027-0.11,0.056-0.166,0.083c-0.305,0.138-0.608,0.304-0.857,0.442    c-1.244,0.746-1.88,1.604-1.88,2.598c0,1.134,0.857,2.13,2.599,2.959c0.111,0.027,0.194,0.083,0.304,0.138    c1.936,0.857,4.285,1.3,7.022,1.3s5.086-0.442,7.022-1.3c0.083-0.055,0.193-0.11,0.304-0.138    C70.613,54.325,71.498,53.329,71.498,52.195z"/>
        <path style="fill:#D12026;" d="M69.232,50.842c0-0.885-0.719-1.631-2.184-2.24c-0.028-0.026-0.055-0.026-0.055-0.026    c-0.332-0.111-0.664-0.249-0.995-0.333c-1.245-0.387-2.682-0.552-4.258-0.552c-1.271,0-2.405,0.11-3.428,0.331    c-0.664,0.139-1.299,0.332-1.88,0.58c-0.608,0.25-1.079,0.526-1.41,0.803c-0.525,0.441-0.802,0.912-0.802,1.437    c0,0.856,0.747,1.603,2.211,2.211c1.465,0.636,3.234,0.94,5.308,0.94c2.046,0,3.815-0.305,5.308-0.94    C68.513,52.444,69.232,51.698,69.232,50.842z"/>
        <path style="fill:#9B1B1F;" d="M46.48,57.392c-0.111-0.026-0.249-0.054-0.359-0.083c0.111,0.029,0.248,0.083,0.359,0.111    c0.249,0.083,0.47,0.166,0.664,0.249c0.027,0,0.055,0,0.055,0.027c0.608,0.249,1.078,0.525,1.438,0.802    c0.194,0.166,0.359,0.304,0.47,0.471c0.276,0.359,0.415,0.69,0.415,1.077c0,0.387-0.139,0.747-0.415,1.107    c-0.359,0.47-0.996,0.884-1.908,1.243c-1.548,0.664-3.4,0.996-5.612,0.996c-2.156,0-4.036-0.332-5.584-0.996    c-1.548-0.635-2.322-1.41-2.322-2.35c0-0.442,0.221-0.912,0.608-1.299c0.083-0.083,0.138-0.11,0.221-0.193    c0.387-0.304,0.885-0.608,1.493-0.857c0.608-0.276,1.299-0.442,1.991-0.607c-0.691,0.082-1.382,0.249-2.018,0.441    c-0.692,0.166-1.327,0.415-1.935,0.664c-0.083,0.027-0.139,0.056-0.194,0.083c-1.907,0.912-2.875,1.963-2.875,3.206    c0,1.271,1.023,2.378,3.069,3.263c2.045,0.912,4.506,1.382,7.409,1.382c1.382,0,2.682-0.11,3.87-0.331    c1.3-0.221,2.46-0.581,3.538-1.051c0.084-0.028,0.167-0.056,0.25-0.11c0.912-0.415,1.603-0.885,2.046-1.383    c0.525-0.553,0.773-1.134,0.773-1.77c0-0.911-0.525-1.713-1.548-2.433c-0.359-0.276-0.774-0.497-1.271-0.746    c-0.083-0.027-0.166-0.083-0.25-0.11c-0.746-0.332-1.52-0.581-2.349-0.803H46.48z"/>
        <path style="fill:#D12026;" d="M46.48,57.421c-0.111-0.028-0.249-0.082-0.359-0.111c-1.327-0.387-2.82-0.58-4.534-0.58    c-1.299,0-2.488,0.11-3.594,0.36c-0.691,0.165-1.382,0.331-1.991,0.607c-0.608,0.249-1.106,0.554-1.493,0.857    c-0.083,0.083-0.138,0.11-0.221,0.193c-0.387,0.387-0.608,0.856-0.608,1.299c0,0.94,0.774,1.715,2.322,2.35    c1.548,0.664,3.428,0.996,5.584,0.996c2.211,0,4.063-0.332,5.612-0.996c0.912-0.359,1.548-0.773,1.908-1.243    c0.276-0.359,0.415-0.72,0.415-1.107c0-0.387-0.139-0.718-0.415-1.077c-0.111-0.167-0.276-0.305-0.47-0.471    c-0.359-0.276-0.83-0.553-1.438-0.802c0-0.027-0.028-0.027-0.055-0.027C46.95,57.587,46.729,57.504,46.48,57.421z"/>

            <line style="fill:none;stroke:#00A651;stroke-width:0;stroke-linecap:round;stroke-linejoin:round;" x1="46.48" y1="57.392" x2="46.507" y2="57.392"/>
    </g>
    <g>
        <path style="fill:#CCCCCC;" d="M35.063,43.985h-0.553c-0.11,0-0.194,0-0.276,0v1.493c-0.829,0.027-1.631,0.056-2.377,0.139    c-0.304,0-0.581,0.027-0.829,0.082c0.249-0.055,0.525-0.082,0.829-0.082c0.747-0.083,1.548-0.111,2.377-0.139v-1.493    c-0.857,0.028-1.631,0.083-2.377,0.166c-0.304,0.055-0.581,0.084-0.857,0.138c-0.138,0.028-0.277,0.057-0.442,0.084    c-0.774,0.165-1.493,0.386-2.156,0.691c-0.691,0.275-1.244,0.607-1.659,0.939c-0.083,0.083-0.166,0.138-0.221,0.222    c-0.304,0.275-0.498,0.608-0.608,0.94c-0.055,0.166-0.083,0.331-0.055,0.497c0,0.996,0.829,1.88,2.543,2.571    c1.604,0.691,3.566,1.051,5.833,1.078c0.083,0,0.166,0,0.276,0c2.377,0,4.423-0.359,6.109-1.078    c0.968-0.388,1.659-0.857,2.074-1.382c0.332-0.36,0.47-0.774,0.47-1.189c0-0.138,0-0.276-0.055-0.387    c-0.056-0.305-0.194-0.553-0.415-0.829c-0.138-0.167-0.277-0.332-0.498-0.498c-0.387-0.304-0.912-0.608-1.576-0.884    c0-0.028-0.027-0.028-0.055-0.028c-0.221-0.083-0.498-0.193-0.719-0.277l0,0c-0.139-0.026-0.276-0.082-0.415-0.11    c-0.608-0.192-1.244-0.331-1.908-0.442c-0.249-0.027-0.525-0.082-0.83-0.109C36.168,44.041,35.615,44.014,35.063,43.985z"/>
        <path style="fill:none;stroke:#00A651;stroke-width:0;stroke-linecap:round;stroke-linejoin:round;" d="M35.063,43.985h-0.553    c-0.11,0-0.194,0-0.276,0v1.493c-0.829,0.027-1.631,0.056-2.377,0.139c-0.304,0-0.581,0.027-0.829,0.082"/>
    </g>
    <g>
        <path style="fill:#A35641;" d="M37.081,42.825c0-0.194-0.277-0.388-0.83-0.526c-0.553-0.138-1.216-0.193-1.991-0.193    c-0.801,0-1.465,0.056-2.018,0.193c-0.498,0.139-0.774,0.305-0.802,0.471c-0.028,0.027-0.028,0.027-0.028,0.027    c0,0.028,0,0.028,0,0.028c0,0.22,0.276,0.387,0.83,0.524c0.553,0.139,1.216,0.194,2.018,0.222    c0.774-0.027,1.438-0.083,1.991-0.222c0.553-0.138,0.83-0.305,0.83-0.497C37.081,42.825,37.081,42.825,37.081,42.825z"/>
        <path style="fill:#626262;" d="M37.661,45.506L37.661,45.506l-0.58-2.653c0,0.192-0.277,0.359-0.83,0.497    c-0.553,0.139-1.216,0.194-1.991,0.222c-0.801-0.027-1.465-0.083-2.018-0.222c-0.553-0.138-0.83-0.305-0.83-0.524c0,0,0,0,0-0.028    l-0.553,2.682c-0.028,0.027-0.028,0.027-0.028,0.056c0,0,0,0,0,0.027c0,0.221,0.331,0.442,0.995,0.607    c0.691,0.167,1.493,0.25,2.433,0.25c0.94,0,1.742-0.083,2.405-0.25c0.663-0.165,0.995-0.387,0.995-0.607    C37.661,45.534,37.661,45.534,37.661,45.506z"/>
        <path style="fill:none;stroke:#00A651;stroke-width:0;stroke-linecap:round;stroke-linejoin:round;" d="M31.441,42.77    c-0.028,0.027-0.028,0.027-0.028,0.027"/>
    </g>
    <g>
        <path style="fill:#CCCCCC;" d="M34.26,43.571c0.774-0.027,1.438-0.083,1.991-0.222c0.553-0.138,0.83-0.305,0.83-0.497V12.996    h-5.668v29.829c0.028,0.192,0.304,0.387,0.83,0.524C32.796,43.488,33.459,43.544,34.26,43.571z"/>
    </g>
    <g>
        <path style="fill:#D12026;" d="M40.204,4.039c-1.659-1.631-3.649-2.46-5.971-2.46c-2.35,0-4.34,0.829-5.999,2.46    c-1.631,1.631-2.46,3.649-2.46,5.972c0,2.35,0.829,4.34,2.46,5.998c1.133,1.106,2.405,1.852,3.843,2.211    c0.691,0.167,1.41,0.25,2.156,0.25c1.023,0,1.963-0.139,2.875-0.471c1.133-0.414,2.184-1.078,3.096-1.99    c1.659-1.658,2.488-3.648,2.488-5.998C42.692,7.688,41.863,5.67,40.204,4.039z"/>
    </g>
    <g>
        <path style="fill:#9B1B1F;" d="M36.112,1.191c-0.608-0.11-1.244-0.166-1.879-0.166c-0.636,0-1.244,0.027-1.797,0.166    c-0.028,0-0.028,0.028-0.028,0.028l0.028,0.524c-0.028,0-0.028,0.027-0.028,0.027c0,0.139,0.194,0.221,0.553,0.305    c0.359,0.083,0.802,0.138,1.299,0.138c0.526,0,0.968-0.055,1.327-0.138c0.36-0.084,0.525-0.166,0.525-0.305c0,0,0,0,0-0.027V1.22    C36.112,1.22,36.112,1.22,36.112,1.191z"/>
    </g>
</svg>
